<svg width="37" height="37" viewBox="0 0 37 37" fill="none" xmlns="http://www.w3.org/2000/svg">
<path d="M18.3333 36.3574C28.2744 36.3574 36.3333 28.2985 36.3333 18.3574C36.3333 8.4163 28.2744 0.357422 18.3333 0.357422C8.39213 0.357422 0.333252 8.4163 0.333252 18.3574C0.333252 28.2985 8.39213 36.3574 18.3333 36.3574Z" fill="#F7931A"/>
<path d="M26.2443 16.1299C26.5975 13.7719 24.8009 12.504 22.3461 11.658L23.1426 8.46305L21.1986 7.9793L20.4224 11.0899C19.9116 10.9617 19.3874 10.8424 18.8643 10.7232L19.6461 7.5923L17.7021 7.10742L16.9056 10.3013C16.4826 10.2045 16.0664 10.11 15.6636 10.0088L15.6659 9.99867L12.9839 9.3293L12.4664 11.406C12.4664 11.406 13.9098 11.7368 13.8794 11.757C14.6669 11.9539 14.8086 12.4748 14.785 12.8888L13.8783 16.5282C13.9323 16.5417 14.002 16.5619 14.0808 16.5923L13.8749 16.5417L12.6036 21.6402C12.5069 21.8787 12.2628 22.2375 11.7115 22.1014C11.7318 22.1295 10.2985 21.7493 10.2985 21.7493L9.33325 23.9745L11.8645 24.6057C12.3348 24.7238 12.796 24.8475 13.2494 24.9634L12.445 28.1944L14.3879 28.6782L15.1844 25.4832C15.7154 25.626 16.2306 25.7588 16.7346 25.8848L15.9404 29.0663L17.8844 29.55L18.6888 26.3258C22.0053 26.9535 24.4983 26.7004 25.5479 23.7012C26.3939 21.2869 25.5063 19.893 23.7614 18.9852C25.0326 18.6927 25.9889 17.8568 26.2443 16.1299ZM21.8005 22.3602C21.2009 24.7755 17.134 23.4694 15.8155 23.142L16.8843 18.8614C18.2028 19.191 22.4294 19.8424 21.8005 22.3602ZM22.4024 16.095C21.8545 18.2922 18.4705 17.175 17.3736 16.9017L18.3411 13.0204C19.438 13.2938 22.9739 13.8034 22.4024 16.095Z" fill="white"/>
</svg>
