<svg width="37" height="37" viewBox="0 0 37 37" fill="none" xmlns="http://www.w3.org/2000/svg">
<circle cx="18.3333" cy="18.3574" r="18" fill="black"/>
<path d="M23.7759 10.2776L20.0152 15.8586C19.7552 16.2387 20.2553 16.6988 20.6153 16.3787L24.316 13.1581C24.416 13.0781 24.5561 13.1381 24.5561 13.2781V23.34C24.5561 23.48 24.376 23.54 24.296 23.44L13.0939 10.0375C12.7339 9.59747 12.2138 9.35742 11.6337 9.35742H11.2336C10.1934 9.35742 9.33325 10.2176 9.33325 11.2778V25.4404C9.33325 26.5006 10.1934 27.3608 11.2536 27.3608C11.9137 27.3608 12.5338 27.0207 12.8939 26.4406L16.6546 20.8595C16.9147 20.4795 16.4146 20.0194 16.0545 20.3395L12.3538 23.54C12.2538 23.6201 12.1138 23.56 12.1138 23.42V13.3782C12.1138 13.2381 12.2938 13.1781 12.3738 13.2781L23.5759 26.6806C23.936 27.1207 24.4761 27.3608 25.0362 27.3608H25.4362C26.4964 27.3608 27.3566 26.5006 27.3566 25.4404V11.2778C27.3566 10.2176 26.4964 9.35742 25.4362 9.35742C24.7561 9.35742 24.136 9.69748 23.7759 10.2776Z" fill="white"/>
</svg>
